<mxfile host="Electron" agent="Mozilla/5.0 (Windows NT 10.0; Win64; x64) AppleWebKit/537.36 (KHTML, like Gecko) draw.io/26.0.15 Chrome/132.0.6834.196 Electron/34.2.0 Safari/537.36" version="26.0.15">
  <diagram id="7vEtHv3np4ZyTvvbuzuy" name="ページ1">
    <mxGraphModel dx="1434" dy="870" grid="1" gridSize="10" guides="1" tooltips="1" connect="1" arrows="1" fold="1" page="1" pageScale="1" pageWidth="450" pageHeight="400" background="#ffffff" math="0" shadow="0">
      <root>
        <mxCell id="0" />
        <mxCell id="1" parent="0" />
        <mxCell id="JAmczBrjKantDDH_IMUS-46" value="" style="rounded=0;whiteSpace=wrap;html=1;strokeColor=none;" vertex="1" parent="1">
          <mxGeometry x="10" y="10" width="430" height="380" as="geometry" />
        </mxCell>
        <mxCell id="JAmczBrjKantDDH_IMUS-45" value="" style="rounded=0;whiteSpace=wrap;html=1;fillColor=#CCFFFF;strokeColor=none;" vertex="1" parent="1">
          <mxGeometry x="20" y="240" width="400" height="140" as="geometry" />
        </mxCell>
        <mxCell id="JAmczBrjKantDDH_IMUS-1" value="" style="ellipse;whiteSpace=wrap;html=1;fillColor=none;strokeColor=#0000FF;" vertex="1" parent="1">
          <mxGeometry x="80" y="180" width="120" height="120" as="geometry" />
        </mxCell>
        <mxCell id="JAmczBrjKantDDH_IMUS-2" value="" style="ellipse;whiteSpace=wrap;html=1;fillColor=none;strokeColor=#0000FF;" vertex="1" parent="1">
          <mxGeometry x="180" y="200" width="80" height="80" as="geometry" />
        </mxCell>
        <mxCell id="JAmczBrjKantDDH_IMUS-3" value="" style="ellipse;whiteSpace=wrap;html=1;fillColor=none;strokeColor=#0000FF;" vertex="1" parent="1">
          <mxGeometry x="280" y="220" width="40" height="40" as="geometry" />
        </mxCell>
        <mxCell id="JAmczBrjKantDDH_IMUS-25" value="" style="rounded=0;whiteSpace=wrap;html=1;fillColor=default;strokeColor=none;" vertex="1" parent="1">
          <mxGeometry x="20" y="40" width="400" height="200" as="geometry" />
        </mxCell>
        <mxCell id="JAmczBrjKantDDH_IMUS-8" value="" style="endArrow=none;html=1;rounded=0;" edge="1" parent="1">
          <mxGeometry width="50" height="50" relative="1" as="geometry">
            <mxPoint x="139.5" y="240" as="sourcePoint" />
            <mxPoint x="39.5" y="140" as="targetPoint" />
          </mxGeometry>
        </mxCell>
        <mxCell id="JAmczBrjKantDDH_IMUS-10" value="" style="endArrow=none;html=1;rounded=0;" edge="1" parent="1">
          <mxGeometry width="50" height="50" relative="1" as="geometry">
            <mxPoint x="379.5" y="240" as="sourcePoint" />
            <mxPoint x="159.5" y="20" as="targetPoint" />
          </mxGeometry>
        </mxCell>
        <mxCell id="JAmczBrjKantDDH_IMUS-11" value="" style="endArrow=none;html=1;rounded=0;strokeColor=#FF8000;" edge="1" parent="1">
          <mxGeometry width="50" height="50" relative="1" as="geometry">
            <mxPoint x="139.5" y="240" as="sourcePoint" />
            <mxPoint x="259.5" y="120" as="targetPoint" />
          </mxGeometry>
        </mxCell>
        <mxCell id="JAmczBrjKantDDH_IMUS-12" value="" style="endArrow=none;html=1;rounded=0;strokeColor=#FF8000;" edge="1" parent="1">
          <mxGeometry width="50" height="50" relative="1" as="geometry">
            <mxPoint x="219.5" y="240" as="sourcePoint" />
            <mxPoint x="299.5" y="160" as="targetPoint" />
          </mxGeometry>
        </mxCell>
        <mxCell id="JAmczBrjKantDDH_IMUS-13" value="" style="endArrow=none;html=1;rounded=0;strokeColor=#FF8000;" edge="1" parent="1">
          <mxGeometry width="50" height="50" relative="1" as="geometry">
            <mxPoint x="299.5" y="240" as="sourcePoint" />
            <mxPoint x="339.5" y="200" as="targetPoint" />
          </mxGeometry>
        </mxCell>
        <mxCell id="JAmczBrjKantDDH_IMUS-14" value="" style="endArrow=none;html=1;rounded=0;strokeColor=#FF8000;" edge="1" parent="1">
          <mxGeometry width="50" height="50" relative="1" as="geometry">
            <mxPoint x="99.5" y="200" as="sourcePoint" />
            <mxPoint x="219.5" y="80" as="targetPoint" />
          </mxGeometry>
        </mxCell>
        <mxCell id="JAmczBrjKantDDH_IMUS-15" value="" style="endArrow=none;html=1;rounded=0;strokeColor=#FF8000;" edge="1" parent="1">
          <mxGeometry width="50" height="50" relative="1" as="geometry">
            <mxPoint x="59.5" y="160" as="sourcePoint" />
            <mxPoint x="179.5" y="40" as="targetPoint" />
          </mxGeometry>
        </mxCell>
        <mxCell id="JAmczBrjKantDDH_IMUS-17" value="" style="endArrow=none;html=1;rounded=0;strokeColor=#FF8000;" edge="1" parent="1">
          <mxGeometry width="50" height="50" relative="1" as="geometry">
            <mxPoint x="156.5" y="299" as="sourcePoint" />
            <mxPoint x="379.5" y="240" as="targetPoint" />
          </mxGeometry>
        </mxCell>
        <mxCell id="JAmczBrjKantDDH_IMUS-19" value="" style="endArrow=none;html=1;rounded=0;" edge="1" parent="1">
          <mxGeometry width="50" height="50" relative="1" as="geometry">
            <mxPoint x="176.5" y="368" as="sourcePoint" />
            <mxPoint x="139.5" y="240" as="targetPoint" />
          </mxGeometry>
        </mxCell>
        <mxCell id="JAmczBrjKantDDH_IMUS-20" value="" style="endArrow=none;html=1;rounded=0;" edge="1" parent="1">
          <mxGeometry width="50" height="50" relative="1" as="geometry">
            <mxPoint x="400.5" y="310" as="sourcePoint" />
            <mxPoint x="379.5" y="240" as="targetPoint" />
          </mxGeometry>
        </mxCell>
        <mxCell id="JAmczBrjKantDDH_IMUS-21" value="" style="endArrow=none;html=1;rounded=0;strokeColor=#FF8000;" edge="1" parent="1">
          <mxGeometry width="50" height="50" relative="1" as="geometry">
            <mxPoint x="166.5" y="332" as="sourcePoint" />
            <mxPoint x="389.5" y="273" as="targetPoint" />
          </mxGeometry>
        </mxCell>
        <mxCell id="JAmczBrjKantDDH_IMUS-22" value="" style="endArrow=none;html=1;rounded=0;strokeColor=#FF8000;" edge="1" parent="1">
          <mxGeometry width="50" height="50" relative="1" as="geometry">
            <mxPoint x="175.5" y="364" as="sourcePoint" />
            <mxPoint x="398.5" y="305" as="targetPoint" />
          </mxGeometry>
        </mxCell>
        <mxCell id="JAmczBrjKantDDH_IMUS-27" value="" style="ellipse;whiteSpace=wrap;html=1;fillColor=#FF0000;" vertex="1" parent="1">
          <mxGeometry x="135" y="235" width="10" height="10" as="geometry" />
        </mxCell>
        <mxCell id="JAmczBrjKantDDH_IMUS-43" value="" style="ellipse;whiteSpace=wrap;html=1;fillColor=#FF0000;" vertex="1" parent="1">
          <mxGeometry x="215" y="235" width="10" height="10" as="geometry" />
        </mxCell>
        <mxCell id="JAmczBrjKantDDH_IMUS-44" value="" style="ellipse;whiteSpace=wrap;html=1;fillColor=#FF0000;" vertex="1" parent="1">
          <mxGeometry x="295" y="235" width="10" height="10" as="geometry" />
        </mxCell>
      </root>
    </mxGraphModel>
  </diagram>
</mxfile>
